<svg width="18" height="13" viewBox="0 0 18 13" fill="none" xmlns="http://www.w3.org/2000/svg">
<path d="M14.5586 1.82493C12.9479 0.648113 10.8062 0 8.52824 0C6.25027 0 4.10868 0.648113 2.49791 1.82493C0.88707 3.00176 0 4.56641 0 6.23071C0 7.88681 0.879608 9.44597 2.47679 10.621C2.59209 10.7058 2.77961 10.7062 2.89557 10.622C3.01157 10.5378 3.01223 10.4009 2.897 10.3161C1.41076 9.22261 0.59228 7.77176 0.59228 6.23071C0.59228 3.03369 4.15235 0.432716 8.52827 0.432716C12.9042 0.432716 16.4642 3.03369 16.4642 6.23071C16.4642 9.42774 12.9042 12.0287 8.52824 12.0287C6.71026 12.0287 4.99991 11.5918 3.58206 10.7651C3.45424 10.6906 3.26792 10.7059 3.16591 10.7993C3.06387 10.8927 3.08482 11.0288 3.21272 11.1034C4.73654 11.9918 6.57467 12.4614 8.52827 12.4614C10.8062 12.4614 12.9479 11.8133 14.5587 10.6365C16.1694 9.45969 17.0565 7.89501 17.0565 6.23074C17.0565 4.56646 16.1694 3.00176 14.5586 1.82493Z" fill="#333333"/>
<path d="M13.7267 4.73369C13.5795 4.46119 13.391 4.19938 13.1664 3.95548C13.0751 3.85633 12.891 3.83002 12.7554 3.89675C12.6197 3.96349 12.5837 4.09791 12.675 4.19704C12.8758 4.41502 13.0443 4.64899 13.1757 4.8925C13.2217 4.97756 13.3332 5.0295 13.4513 5.0295C13.4875 5.0295 13.5243 5.02464 13.5599 5.01436C13.7121 4.97048 13.7867 4.84484 13.7267 4.73369Z" fill="#333333"/>
<path d="M10.8602 9.70792C10.7965 9.59787 10.6228 9.54641 10.4721 9.59295C9.85658 9.78313 9.2026 9.87961 8.52831 9.87961C5.77454 9.87961 3.53418 8.24281 3.53418 6.23093C3.53418 5.8898 3.5985 5.55217 3.72536 5.22742C3.77027 5.11252 3.67912 4.9928 3.52188 4.96002C3.36444 4.92726 3.20071 4.99372 3.15583 5.10868C3.01389 5.47205 2.94189 5.84964 2.94189 6.23091C2.94189 8.4814 5.44794 10.3123 8.52831 10.3123C9.28229 10.3123 10.014 10.2044 10.7029 9.99149C10.8535 9.94491 10.924 9.81798 10.8602 9.70792Z" fill="#333333"/>
<path d="M12.603 2.07493C12.4327 1.85968 12.1607 1.77043 11.9708 1.72205C11.9181 1.70861 11.8613 1.70633 11.8069 1.71548L11.7841 1.71932C11.4486 1.77559 11.1016 1.68006 10.9004 1.47586C10.8667 1.44169 10.8201 1.41541 10.7663 1.40029C10.5819 1.34855 10.3003 1.28914 9.98507 1.37101C9.36894 1.53109 8.88769 1.88022 8.66469 2.32891C8.63338 2.39192 8.60836 2.45566 8.58817 2.51982C8.46834 2.40952 8.33213 2.30693 8.18035 2.21379C8.08464 2.15508 7.97844 2.10779 7.86464 2.07328C7.52308 1.96967 7.12794 1.9981 6.8076 2.14939L6.69171 2.2041C6.46997 2.30888 6.18567 2.30635 5.96744 2.19758L5.89858 2.16326C5.49062 1.95993 4.95711 1.96419 4.57114 2.1738C4.55465 2.18278 4.53823 2.19215 4.52183 2.20201C4.27098 2.35327 4.05871 2.53294 3.89091 2.73602C3.80636 2.83832 3.8514 2.9713 3.99139 3.03305C4.13147 3.09477 4.31343 3.06191 4.39794 2.95964C4.53113 2.79847 4.69963 2.65585 4.89878 2.53579C4.90724 2.53067 4.9158 2.52581 4.92443 2.52111C5.10789 2.42147 5.36523 2.4213 5.56478 2.52074L5.63364 2.55506C6.04929 2.76221 6.59087 2.76705 7.01321 2.5675L7.12911 2.51279C7.28578 2.4388 7.47584 2.4239 7.63741 2.47294C7.69624 2.49081 7.74927 2.51442 7.79938 2.54518C8.35398 2.88551 8.64777 3.38445 8.60556 3.91413C8.53907 4.74829 7.59157 5.43162 6.44842 5.46986C5.82136 5.49086 5.22708 5.32857 4.77492 5.01297C4.32245 4.69718 4.07324 4.27159 4.07324 3.81463C4.07324 3.7055 4.08779 3.59641 4.11658 3.4904C4.14833 3.37316 4.04405 3.2593 3.88358 3.23611C3.72351 3.21286 3.56734 3.28907 3.53556 3.40628C3.49935 3.53992 3.48096 3.67734 3.48096 3.81461C3.48096 4.39093 3.79517 4.92762 4.36576 5.32582C4.90331 5.701 5.59982 5.90437 6.33972 5.90435C6.38482 5.90435 6.43006 5.9036 6.47547 5.90206C7.17835 5.87855 7.84382 5.66486 8.34932 5.30034C8.83096 4.95303 9.12638 4.49784 9.18868 4.01192C9.43207 4.18624 9.73036 4.31752 10.0673 4.39438C10.2774 4.4423 10.4943 4.46606 10.7111 4.46606C11.0229 4.46606 11.3345 4.41685 11.6248 4.31942C12.117 4.15421 12.505 3.86492 12.7171 3.50483C12.993 3.0366 12.9514 2.51541 12.603 2.07493ZM12.1732 3.33378C11.8565 3.87134 11.0089 4.15574 10.2439 3.98133C9.82413 3.88561 9.48587 3.67496 9.29135 3.38817C9.09674 3.1012 9.07188 2.77744 9.22143 2.47657C9.38386 2.14973 9.73452 1.89536 10.1835 1.77871C10.2232 1.76841 10.2634 1.76316 10.3071 1.76316C10.3584 1.76316 10.4144 1.77038 10.4794 1.78516C10.8119 2.07905 11.3339 2.21912 11.8492 2.15114C11.9702 2.18845 12.0424 2.23104 12.0902 2.29145C12.3441 2.61243 12.3742 2.99231 12.1732 3.33378Z" fill="#333333"/>
<path d="M14.9717 6.6343C15.0174 6.14811 14.684 5.6777 14.0967 5.42701C13.5094 5.17632 12.7848 5.19514 12.2276 5.46296C11.9253 5.33834 11.5749 5.30517 11.2385 5.36967C10.8955 5.43543 10.6081 5.59485 10.4293 5.81852C10.0712 6.2663 10.2614 6.8395 10.8496 7.11981C10.8459 7.15967 10.8427 7.19922 10.8396 7.23814C10.8099 7.61843 10.7791 8.01167 10.2192 8.71177C10.1367 8.81492 10.1843 8.94742 10.3255 9.00771L11.6792 9.5855C11.7249 9.60502 11.7765 9.61505 11.8286 9.61505C11.8537 9.61505 11.879 9.61271 11.9037 9.60794C11.9797 9.59337 12.0446 9.55737 12.0842 9.50782C12.5166 8.96708 12.8833 8.72725 13.1544 8.57871C13.2852 8.50704 13.3117 8.37142 13.2136 8.27582C13.1155 8.18024 12.9299 8.16087 12.799 8.23254C12.3937 8.45463 12.0562 8.7284 11.7271 9.10482L10.8749 8.74103C11.3647 8.06592 11.4024 7.62824 11.4304 7.27107C11.5301 7.27908 11.631 7.27935 11.7311 7.27078C11.8793 7.43161 12.0753 7.5662 12.307 7.66511C12.5387 7.76403 12.7954 7.82266 13.0599 7.83799C13.1705 8.0309 13.3649 8.19482 13.6149 8.30154C13.8249 8.39118 14.0551 8.43378 14.2823 8.43378C14.7391 8.43378 15.1843 8.26168 15.4308 7.95336C15.7967 7.49591 15.5902 6.9075 14.9717 6.6343ZM14.9194 7.73511C14.7149 7.99086 14.2637 8.07741 13.9136 7.928C13.7339 7.85128 13.6105 7.72708 13.5661 7.57825C13.5364 7.47841 13.4154 7.4079 13.2769 7.4079C13.2718 7.4079 13.2666 7.408 13.2614 7.4082C13.032 7.41691 12.8048 7.37656 12.6056 7.29154C12.4065 7.2065 12.247 7.08199 12.1445 6.93145C12.0799 6.83655 11.9307 6.7898 11.7922 6.82103C11.5928 6.86588 11.3842 6.84829 11.2045 6.77164C10.8545 6.62221 10.736 6.29259 10.9406 6.03679C11.0397 5.91293 11.1988 5.82463 11.3888 5.78819C11.5788 5.75173 11.7768 5.77157 11.9463 5.84395C11.9809 5.85873 12.0146 5.87601 12.0465 5.89536C12.1577 5.96297 12.3197 5.9619 12.4294 5.89273C12.8116 5.65146 13.3615 5.61442 13.7979 5.80066C14.2341 5.98687 14.4601 6.35506 14.3601 6.71691C14.3314 6.82061 14.4097 6.92427 14.545 6.9619C14.5837 6.97268 14.6209 6.98558 14.6553 7.00033C14.6554 7.00033 14.6554 7.00033 14.6554 7.00033C15.0055 7.14974 15.1239 7.47936 14.9194 7.73511Z" fill="#333333"/>
<path d="M8.39232 8.30527C8.55587 8.30527 8.68845 8.2084 8.68845 8.08891C8.68845 7.96942 8.55587 7.87256 8.39232 7.87256C8.22877 7.87256 8.09619 7.96942 8.09619 8.08891C8.09619 8.2084 8.22877 8.30527 8.39232 8.30527Z" fill="#333333"/>
<path d="M7.77611 7.43952C7.93965 7.43952 8.07224 7.34266 8.07224 7.22318C8.07224 7.1037 7.93965 7.00684 7.77611 7.00684C7.61256 7.00684 7.47998 7.1037 7.47998 7.22318C7.47998 7.34266 7.61256 7.43952 7.77611 7.43952Z" fill="#333333"/>
<path d="M6.93626 8.21835C7.09981 8.21835 7.23239 8.12149 7.23239 8.002C7.23239 7.88251 7.09981 7.78564 6.93626 7.78564C6.77272 7.78564 6.64014 7.88251 6.64014 8.002C6.64014 8.12149 6.77272 8.21835 6.93626 8.21835Z" fill="#333333"/>
<path d="M6.08568 8.52108C6.24922 8.52108 6.38181 8.42422 6.38181 8.30473C6.38181 8.18524 6.24922 8.08838 6.08568 8.08838C5.92213 8.08838 5.78955 8.18524 5.78955 8.30473C5.78955 8.42422 5.92213 8.52108 6.08568 8.52108Z" fill="#333333"/>
<path d="M5.60912 7.74225C5.77266 7.74225 5.90524 7.64539 5.90524 7.52591C5.90524 7.40643 5.77266 7.30957 5.60912 7.30957C5.44557 7.30957 5.31299 7.40643 5.31299 7.52591C5.31299 7.64539 5.44557 7.74225 5.60912 7.74225Z" fill="#333333"/>
<path d="M6.61595 7.35311C6.7795 7.35311 6.91208 7.25625 6.91208 7.13676C6.91208 7.01727 6.7795 6.92041 6.61595 6.92041C6.45241 6.92041 6.31982 7.01727 6.31982 7.13676C6.31982 7.25625 6.45241 7.35311 6.61595 7.35311Z" fill="#333333"/>
<path d="M6.93626 6.5743C7.09981 6.5743 7.23239 6.47743 7.23239 6.35795C7.23239 6.23846 7.09981 6.1416 6.93626 6.1416C6.77272 6.1416 6.64014 6.23846 6.64014 6.35795C6.64014 6.47743 6.77272 6.5743 6.93626 6.5743Z" fill="#333333"/>
<path d="M5.55003 6.96347C5.71358 6.96347 5.84616 6.86661 5.84616 6.74712C5.84616 6.62763 5.71358 6.53076 5.55003 6.53076C5.38649 6.53076 5.25391 6.62763 5.25391 6.74712C5.25391 6.86661 5.38649 6.96347 5.55003 6.96347Z" fill="#333333"/>
</svg>
