<svg width="12" height="13" viewBox="0 0 12 13" fill="none" xmlns="http://www.w3.org/2000/svg">
<path d="M11.6815 7.4886C11.6182 7.43012 11.5218 7.39602 11.4197 7.39602H10.5714L10.7385 7.17233C11.0017 6.82012 10.9914 6.40386 10.7112 6.05878C10.4309 5.7137 9.93568 5.50769 9.38648 5.50769H9.19276C9.24998 5.252 9.18428 4.98732 8.9955 4.75491C8.71522 4.40985 8.21997 4.20383 7.67077 4.20383H7.28038C7.5252 3.98103 7.67218 3.69847 7.67218 3.39122C7.67218 2.75792 7.0492 2.22919 6.22756 2.1142C6.25096 1.74238 6.41892 0.829674 7.48045 0.464693C7.6473 0.407318 7.7189 0.262029 7.64036 0.140129C7.56187 0.0182535 7.36297 -0.0340986 7.19612 0.0232758C5.77738 0.511042 5.57894 1.65764 5.55786 2.11403C4.73562 2.22866 4.11209 2.75756 4.11209 3.39119C4.11209 3.69849 4.25907 3.98103 4.50389 4.20381H4.08273C3.5335 4.20381 3.03828 4.40982 2.75801 4.75488C2.56922 4.9873 2.50352 5.25198 2.56074 5.50766H2.36702C1.81779 5.50766 1.32261 5.71367 1.0423 6.05876C0.762022 6.40384 0.751808 6.82012 1.01497 7.17231L1.18211 7.39599H0.333881C0.231813 7.39599 0.135408 7.4301 0.0720335 7.48857C0.008724 7.54705 -0.0145179 7.62346 0.00895308 7.69602L1.4199 12.0572C1.45548 12.1672 1.58999 12.245 1.74479 12.245H10.0087C10.1635 12.245 10.2981 12.1672 10.3336 12.0572L11.7446 7.69602C11.7681 7.62348 11.7448 7.54707 11.6815 7.4886ZM5.89215 2.57858C6.50548 2.57858 7.00442 2.94313 7.00442 3.39119C7.00442 3.83926 6.50544 4.20381 5.89215 4.20381C5.27883 4.20381 4.77988 3.83926 4.77988 3.39119C4.77988 2.94313 5.27883 2.57858 5.89215 2.57858ZM3.33224 5.00387C3.49104 4.80838 3.77158 4.69167 4.08276 4.69167H7.67081C7.92247 4.69167 8.15404 4.76808 8.31746 4.90072H6.59988C6.41552 4.90072 6.26602 5.00992 6.26602 5.14464C6.26602 5.27936 6.41552 5.38856 6.59988 5.38856H8.54054C8.53531 5.42864 8.525 5.46851 8.50915 5.50766H3.24445C3.17652 5.33991 3.20615 5.15916 3.33224 5.00387ZM1.6166 6.30772C1.7754 6.11221 2.05591 5.99552 2.36708 5.99552H9.38648C9.69763 5.99552 9.97817 6.11223 10.137 6.30772C10.2958 6.50321 10.3016 6.73905 10.1525 6.93855L9.81069 7.39597H1.94287L1.73631 7.1195H3.86137C4.04573 7.1195 4.19524 7.0103 4.19524 6.87558C4.19524 6.74086 4.04573 6.63166 3.86137 6.63166H1.49362C1.49391 6.51995 1.53476 6.40848 1.6166 6.30772ZM2.00896 11.7571L0.755868 7.88386H3.5826L4.03857 11.7571H2.00896ZM7.04482 11.7571H4.70872L4.25275 7.88386H7.50078L7.04482 11.7571ZM9.7446 11.7571H7.715L8.17097 7.88386H10.9977L9.7446 11.7571Z" fill="#333333"/>
<path d="M5.21527 6.63232H5.03064C4.84628 6.63232 4.69678 6.74153 4.69678 6.87625C4.69678 7.01097 4.84628 7.12018 5.03064 7.12018H5.21527C5.39963 7.12018 5.54913 7.01097 5.54913 6.87625C5.54913 6.74153 5.39963 6.63232 5.21527 6.63232Z" fill="#333333"/>
</svg>
