<svg width="10" height="13" viewBox="0 0 10 13" fill="none" xmlns="http://www.w3.org/2000/svg">
<path d="M9.15844 2.57302H7.88147L8.51332 0.365333C8.56024 0.201392 8.41636 0.040726 8.19203 0.00648238C7.96769 -0.0278017 7.74777 0.0773146 7.70079 0.241215L7.03342 2.57302H0.415072C0.17972 2.57302 -0.00876087 2.71602 0.000314532 2.88796L0.514624 12.62C0.523257 12.7828 0.70637 12.9115 0.929381 12.9115H8.64414C8.86715 12.9115 9.05026 12.7828 9.05889 12.62L9.5732 2.88796C9.58228 2.71614 9.39391 2.57302 9.15844 2.57302ZM0.917705 4.52814L0.84643 3.17946H6.85988L6.4739 4.52814H0.917705ZM8.24482 12.305H1.3287L0.949746 5.13458H8.62377L8.24482 12.305ZM8.65581 4.52814H7.32189L7.70787 3.17946H8.72709L8.65581 4.52814Z" fill="#333333"/>
<path d="M2.17496 9.98592C2.404 9.97946 2.58251 9.83856 2.57366 9.67122L2.4113 6.59864C2.40239 6.43126 2.20827 6.30112 1.98056 6.30734C1.75152 6.31381 1.573 6.45471 1.58186 6.62204L1.74422 9.69463C1.75296 9.85946 1.94144 9.99183 2.17496 9.98592Z" fill="#333333"/>
<path d="M2.19883 10.4313C1.96979 10.4378 1.79127 10.5787 1.80012 10.7461L1.81512 11.0291C1.82386 11.1939 2.01229 11.3263 2.24587 11.3204C2.47491 11.3139 2.65344 11.173 2.64458 11.0057L2.62958 10.7226C2.62073 10.5553 2.42683 10.4254 2.19883 10.4313Z" fill="#333333"/>
</svg>
