<svg width="15" height="12" viewBox="0 0 15 12" fill="none" xmlns="http://www.w3.org/2000/svg">
<path d="M8.775 0.035695C8.40141 -0.0060584 8.03023 0.0217772 7.658 0.0533974C7.64841 0.054191 7.64181 0.0579756 7.6327 0.0593186C4.36597 -0.425545 1.52778 2.15926 0.522039 4.26658C-0.768106 6.96975 0.303537 10.1961 4.06625 11.3242C8.00469 12.5051 12.1392 10.616 13.8375 7.87446C15.7656 4.76207 13.5252 0.566524 8.775 0.035695ZM13.2838 7.62925C11.8534 10.1508 8.03885 11.8864 4.48021 10.9426C0.804352 9.96775 0.0287176 6.91188 1.16417 4.40063C1.68263 3.25394 2.63447 2.2344 3.85822 1.46025C5.09487 0.677928 6.57016 0.464705 8.11491 0.456403C12.7332 0.596558 14.9818 4.63577 13.2838 7.62925Z" fill="#333333"/>
<path d="M9.69792 1.50331C9.04314 1.34136 8.34235 1.29661 7.65808 1.30583C7.60193 1.30656 7.55898 1.32079 7.522 1.33965C1.17102 0.966859 -0.869786 9.62687 5.84408 10.5716C9.15142 11.037 11.8099 9.26433 12.6989 6.96124C13.5041 4.87551 12.679 2.24059 9.69792 1.50331ZM7.0514 10.1925C3.83486 10.291 2.0779 8.22867 2.29326 5.98815C2.51692 3.66094 4.6349 2.05178 7.54214 1.67032C7.57502 1.68314 7.61264 1.69187 7.65808 1.69242C14.6119 1.77666 13.2503 10.0026 7.0514 10.1925Z" fill="#333333"/>
<path d="M4.09884 7.46486C4.03753 7.46388 4.01046 7.43458 3.96501 7.40937C3.92159 7.3852 3.87872 7.3758 3.82514 7.37501C3.77374 7.37421 3.76004 7.43892 3.81274 7.44429C3.92328 7.45576 3.96405 7.54921 4.08168 7.56136C4.17627 7.57107 4.19182 7.46638 4.09884 7.46486Z" fill="#333333"/>
<path d="M12.0454 5.19387C11.9971 5.10944 11.8603 5.0064 11.7823 4.94158C11.6539 4.83475 11.6845 4.64832 11.6336 4.51543C11.5945 4.41325 11.4909 4.33908 11.3811 4.27077C11.5813 4.11054 11.6322 3.89078 11.3497 3.62378C11.2278 3.50853 10.8457 3.34579 10.8048 3.20423C10.7654 3.06792 10.7467 2.96946 10.633 2.85897C10.4431 2.67456 9.85579 2.78596 9.60579 2.75971C9.54617 2.75343 9.50065 2.77723 9.47591 2.80898C9.37907 2.72199 9.26829 2.65161 9.14953 2.62414C9.14711 2.61352 9.1422 2.60277 9.13318 2.59233C8.83942 2.25403 8.47598 2.03391 7.97847 1.8882C7.92481 1.87251 7.84336 1.88967 7.80654 1.92263C7.6234 2.08653 7.60753 2.22821 7.53961 2.40762C7.3365 2.39785 7.06821 2.37826 6.91674 2.4606C6.77615 2.53703 6.82876 2.70453 6.75343 2.81209C6.74376 2.82595 6.63032 2.8279 6.50165 2.83944C6.49867 2.81691 6.48159 2.79579 6.44678 2.78926C5.94106 2.69415 5.26259 2.62188 4.94741 3.0283C4.78329 3.23994 4.80843 3.32955 4.47608 3.37881C4.31454 3.4028 4.21931 3.49547 4.14865 3.59967C3.92193 3.93388 3.17538 4.23671 3.27763 4.67128C3.28689 4.71065 3.30494 4.74422 3.32476 4.77658C3.25619 4.79489 3.19424 4.81882 3.1488 4.85288C2.99096 4.97118 3.01594 5.13423 3.08386 5.28122C2.85875 5.3787 2.64186 5.52594 2.57225 5.71774C2.49466 5.93139 2.9257 5.96826 3.07741 6.04023C3.19996 6.0984 3.32919 5.96667 3.22953 5.89086C3.18223 5.8549 3.14541 5.83293 3.09063 5.8035C3.04905 5.78476 3.00595 5.7684 2.96115 5.75455C2.94915 5.74759 2.94012 5.74301 2.93175 5.73898C3.04124 5.60603 3.17466 5.51691 3.35537 5.43676C3.41443 5.41057 3.44537 5.35508 3.42619 5.30484C3.38212 5.18929 3.26361 5.04394 3.46535 5.00128C3.5087 4.99212 3.5522 4.98467 3.59571 4.97735C3.83427 5.06397 4.15751 5.06452 4.41477 5.02807C4.43862 5.0824 4.46673 5.13673 4.50347 5.19179C4.55262 5.26535 4.69047 5.27072 4.76331 5.21712C4.8384 5.16188 4.92332 5.12391 5.01718 5.0896C5.01823 5.08924 5.01943 5.08906 5.02056 5.08869C4.90035 5.24557 4.77604 5.39622 4.69305 5.56067C4.204 5.3864 3.6675 5.46887 3.44859 5.95501C3.39002 6.08522 3.15186 6.19229 3.04599 6.31138C2.93424 6.43719 2.88534 6.58992 2.88534 6.73954C2.88534 6.97632 3.09772 7.14499 3.3586 7.23753C3.31823 7.28068 3.28351 7.32744 3.26127 7.38147C3.1836 7.57021 3.30534 7.75707 3.51224 7.86298C3.6455 7.93116 3.80213 7.95216 3.95698 7.94239C3.90324 8.12937 3.80205 8.33026 3.8723 8.50991C3.94304 8.69041 4.22253 8.70494 4.45425 8.69267C4.41211 9.09104 4.5519 9.53836 5.09187 9.69921C5.52154 9.82722 5.95121 9.68713 6.24625 9.44497C6.26518 9.45504 6.28146 9.46609 6.30361 9.47488C6.55144 9.57371 6.83392 9.50204 7.08078 9.39632C7.13564 9.51712 7.29968 9.61192 7.62921 9.64812C8.32693 9.72473 8.47856 9.35865 8.35932 8.99276C8.51908 9.16386 8.7707 9.2716 9.12528 9.24182C9.62432 9.19976 9.68902 8.87495 9.95312 8.63743C10.0222 8.57516 10.1247 8.56241 10.1874 8.48964C10.2455 8.42243 10.2172 8.32721 10.1773 8.24175C10.5656 8.23009 10.8138 8.03896 11.0283 7.75914C11.0627 7.71433 11.02 7.63919 10.9427 7.64603C10.8221 7.65665 10.7667 7.68448 10.6879 7.7589C10.475 7.96003 10.3615 8.06564 9.98462 8.03731C9.90446 8.03121 9.83033 8.10562 9.85878 8.16239C9.94917 8.34259 9.95368 8.36402 9.77603 8.46333C9.61199 8.55502 9.5415 8.74273 9.40598 8.85096C9.15614 9.05063 8.8594 9.02609 8.61641 8.85035C8.3847 8.68272 8.35924 8.40406 8.40355 8.16953C9.16871 8.12796 9.87916 7.66239 10.1772 7.1014C10.2471 7.11337 10.3308 7.10964 10.3952 7.11202C10.5413 7.11758 10.5789 6.98499 10.5098 6.91742C10.5411 6.84111 10.4089 6.76292 10.3107 6.82775C10.3021 6.83348 10.2917 6.83745 10.2822 6.84227C10.3617 6.56196 10.3343 6.27122 10.1573 6.00629C10.1633 5.99164 10.1694 5.97699 10.1687 5.95837C10.1559 5.64034 10.3655 5.47521 10.1297 5.16811C10.1203 5.15584 10.1047 5.1479 10.0907 5.13881C10.1993 5.03222 10.3189 4.95366 10.4184 4.87144C10.3843 4.90599 10.3784 4.95323 10.4361 4.99395C10.4476 5.00195 10.4601 5.00701 10.4721 5.01361C10.4937 5.07245 10.4665 5.15864 10.4546 5.2073C10.4356 5.2847 10.4066 5.361 10.3993 5.43981C10.3942 5.49585 10.4637 5.53858 10.5319 5.54029C10.7599 5.54602 10.9882 5.54468 11.2163 5.54505C11.2891 5.54517 11.359 5.49701 11.3553 5.43975C11.3498 5.35526 11.2367 5.17098 11.3155 5.1001C11.3466 5.07221 11.3614 5.03222 11.3506 4.9967C11.3561 5.00244 11.3608 5.00842 11.3683 5.01355C11.8765 5.3549 11.8416 5.73459 11.2602 6.04511C11.1625 6.0973 11.1358 6.19522 11.2229 6.26444C11.4625 6.45465 11.3047 6.63711 11.1634 6.79478C11.0704 6.7606 10.9751 6.72873 10.8785 6.69351C10.8133 6.66977 10.7156 6.6755 10.681 6.73282C10.5905 6.88268 10.5713 7.10427 10.4303 7.22953C10.3108 7.33581 10.5131 7.49061 10.6335 7.38348C10.7769 7.25615 10.8119 7.09078 10.8821 6.93628C10.9344 6.95502 10.9852 6.97443 11.0352 6.99451C11.0397 7.09463 11.1938 7.16397 11.3009 7.12557C11.3105 7.13143 11.3202 7.13632 11.3296 7.14242C11.2966 7.26542 11.2415 7.39203 11.0525 7.38946C10.8963 7.38733 10.7491 7.37286 10.6053 7.43171C10.4813 7.48249 10.5665 7.64108 10.7021 7.60556C10.8207 7.57449 10.9563 7.6152 11.0788 7.61624C11.235 7.61758 11.3796 7.56521 11.4706 7.46851C11.5941 7.33733 11.7154 7.10885 11.5439 6.98383C11.5176 6.96466 11.4888 6.94989 11.461 6.93329C11.6607 6.64193 11.8476 6.50696 11.5987 6.19406C12.0222 5.92687 12.2942 5.62923 12.0454 5.19387ZM9.54053 4.29885C9.55954 3.9818 9.65695 3.67164 9.70175 3.35696C9.86071 3.44095 10.0067 3.53972 10.0828 3.67701C10.1877 3.86667 10.1495 4.0993 10.1109 4.30245C9.92984 4.32846 9.76346 4.29055 9.57429 4.29672C9.56148 4.29714 9.55076 4.29959 9.53964 4.30178C9.53972 4.30068 9.54037 4.29995 9.54053 4.29885ZM6.83657 3.08159C6.89764 3.08623 6.95453 3.0529 6.98579 3.01677C7.0815 2.90603 7.14418 2.80318 7.1574 2.67065C7.15764 2.66803 7.15772 2.66693 7.15796 2.66455C7.31152 2.64111 7.5127 2.66088 7.65797 2.66015C7.73773 2.65972 7.78768 2.62127 7.8162 2.56889C7.86245 2.48355 7.90153 2.14293 8.15 2.22809C8.43376 2.32533 8.6687 2.47415 8.87181 2.64874C8.83427 2.66455 8.79656 2.68433 8.75869 2.71198C8.60223 2.82588 8.51087 2.96842 8.46462 3.12322C8.44416 3.08623 8.39606 3.05712 8.34248 3.05736C8.1081 3.05846 7.85278 3.02537 7.62252 3.06041C7.54058 3.07286 7.51174 3.14111 7.5347 3.19397C7.57079 3.35702 7.48442 3.52275 7.53341 3.68159C7.5994 3.8956 7.98234 3.89414 8.20559 3.89456C8.25345 3.89463 8.31581 3.87357 8.33587 3.83798C8.43094 3.66895 8.39815 3.49223 8.42965 3.32021C8.41233 3.56023 8.47751 3.81307 8.56597 4.02837C8.33458 4.10535 7.9796 4.24117 7.9991 4.43608C8.01755 4.61957 8.2035 4.72316 8.39871 4.80984C8.29986 4.82938 8.20068 4.84549 8.10198 4.82938C8.06782 4.82382 8.03906 4.82895 8.01489 4.83884C7.79598 4.67292 7.3029 4.35202 6.98748 4.55334C6.94075 4.58313 6.90804 4.61915 6.88113 4.65754C6.83335 4.64143 6.78404 4.6211 6.73578 4.61304C6.73949 4.58893 6.70025 4.57123 6.6727 4.58936C6.65223 4.60279 6.64144 4.62171 6.62121 4.63367C6.61606 4.63673 6.61388 4.64161 6.60985 4.64546C6.71661 4.32046 6.81973 3.98589 6.79701 3.67658C6.79178 3.60492 6.66714 3.57421 6.6159 3.6394C6.56466 3.7046 6.52268 3.77559 6.48433 3.84872C6.47249 3.83486 6.45516 3.82412 6.42608 3.82565C6.09736 3.84292 5.69661 4.02776 5.65222 4.29543C5.61 4.54974 5.894 4.75527 6.18494 4.85337C6.17607 4.89317 6.16721 4.93315 6.15778 4.97173C5.68114 4.86314 5.34259 4.61164 5.52637 4.19484C5.70604 3.78731 6.30595 3.5617 6.83673 3.55187C6.95525 3.54967 6.99175 3.40317 6.86582 3.38919C6.69663 3.37039 6.53098 3.37222 6.37145 3.38901C6.43953 3.20991 6.38177 3.04723 6.83657 3.08159ZM8.1533 3.2632C8.14138 3.30104 8.13115 3.33913 8.12736 3.38034C8.11842 3.4774 8.1297 3.5725 8.09819 3.66559C8.0161 3.66504 7.93045 3.66132 7.85995 3.63788C7.82201 3.62524 7.82563 3.61963 7.82338 3.58154C7.81693 3.47483 7.82499 3.37356 7.81322 3.27077C7.92521 3.27345 8.0401 3.26777 8.1533 3.2632ZM6.43341 3.94926C6.33149 4.1797 6.27517 4.43498 6.22248 4.68104C6.08535 4.58344 5.9529 4.47887 5.93695 4.32815C5.916 4.13062 6.24923 4.03783 6.43341 3.94926ZM4.55858 4.47539C4.4453 4.45634 4.32163 4.51543 4.32534 4.60999C4.32832 4.68605 4.33823 4.75729 4.35241 4.82706C4.22608 4.82535 4.0784 4.82431 3.95102 4.80124C3.94191 4.75503 3.8976 4.71346 3.82517 4.71767C3.80011 4.71913 3.77296 4.72054 3.74452 4.72219C3.716 4.70143 3.69094 4.67793 3.67507 4.64765C3.575 4.45665 4.08871 4.18586 4.2413 4.09558C4.37005 4.0194 4.44732 3.82028 4.52515 3.70924C4.57808 3.63367 4.87151 3.62189 4.96916 3.60382C5.02604 3.59326 5.08792 3.55187 5.09783 3.50633C5.20281 3.02464 5.65601 2.90756 6.19686 2.90298C6.16915 2.91592 6.1453 2.93076 6.12975 2.94925C6.00076 3.10162 6.01389 3.28932 6.0006 3.46439C5.62523 3.57861 5.31802 3.79995 5.15858 4.11829C5.08824 4.25863 5.07205 4.38956 5.09485 4.50982C4.91606 4.50408 4.72939 4.50408 4.55858 4.47539ZM4.7285 4.92943C4.70691 4.86332 4.69595 4.79745 4.69337 4.72835C4.85129 4.71407 5.01645 4.71468 5.17268 4.70741C5.19644 4.74557 5.22496 4.78195 5.25703 4.8168C5.08606 4.79855 4.8902 4.85465 4.7285 4.92943ZM5.04103 5.57148C5.11732 5.38994 5.24084 5.23318 5.29949 5.04681C5.30175 5.03967 5.30086 5.03308 5.30078 5.02636C5.33107 5.01843 5.36048 5.00866 5.3882 4.99523C5.4052 4.98699 5.41841 4.9757 5.42767 4.96294C5.64384 5.11201 5.93824 5.21328 6.24423 5.25174C6.32859 5.2623 6.43381 5.23599 6.45178 5.16243C6.48739 5.01684 6.53758 4.8643 6.58875 4.70931C6.59245 4.72988 6.60236 4.74978 6.62105 4.76254C6.67552 4.79959 6.7411 4.8292 6.81208 4.85282C6.79669 5.03399 6.87243 5.24075 6.93124 5.39842C6.68639 5.55762 6.3953 5.79783 6.46225 6.05464C6.5234 6.28953 6.77196 6.3836 7.04621 6.42517C6.91231 6.50587 6.81909 6.59511 6.7548 6.68863C6.43204 6.68777 6.14997 6.6821 5.82061 6.56856C5.69742 6.52601 5.59461 6.48841 5.56045 6.41784C5.56448 6.41003 5.56947 6.40307 5.57318 6.39489C5.5876 6.36333 5.57721 6.33824 5.55497 6.32097C5.55666 6.3145 5.55674 6.30876 5.55924 6.30186C5.60251 6.1799 5.64037 6.08442 5.65174 5.95813C5.65826 5.88542 5.56311 5.81455 5.4678 5.8187C5.34396 5.82414 5.21473 5.82432 5.12667 5.79447C5.0992 5.77365 5.07084 5.75418 5.04207 5.7352C5.01549 5.69778 5.00952 5.64644 5.04103 5.57148ZM6.09647 7.6738C6.04757 7.6868 5.99778 7.70329 5.94807 7.72172C5.82963 7.6915 5.70966 7.66263 5.59679 7.62356C5.33357 7.53249 5.50695 7.30028 5.5934 7.15451C5.62668 7.09847 5.61387 7.03804 5.54128 7.00367C5.33268 6.90509 5.17308 6.81957 5.36024 6.65267C5.36346 6.64981 5.36628 6.647 5.3695 6.64413C5.76356 6.81383 6.20741 6.97498 6.65497 6.94678C6.63531 7.11886 6.69566 7.2957 6.8124 7.45972C6.73868 7.46577 6.6565 7.45521 6.59036 7.4513C6.4832 7.44501 6.3928 7.46052 6.28919 7.46845C6.18341 7.47657 6.09188 7.52998 6.09285 7.61728C6.09293 7.63699 6.09551 7.65476 6.09647 7.6738ZM6.48634 7.69053C6.49553 7.68912 6.50463 7.68693 6.5139 7.68589C6.66182 7.66422 6.82143 7.67655 6.9559 7.62936C6.99417 7.66764 7.03542 7.70451 7.07884 7.7401C6.86058 7.73765 6.73022 7.93208 6.53549 7.99062C6.51535 7.94282 6.49923 7.89417 6.49367 7.84338C6.48852 7.79577 6.48578 7.7484 6.48505 7.70066C6.48602 7.69614 6.48578 7.69431 6.48634 7.69053ZM3.90936 7.69529C3.84289 7.69425 3.77409 7.67801 3.71366 7.65079C3.66613 7.62936 3.64212 7.61099 3.60941 7.56081C3.61972 7.57656 3.59845 7.5168 3.59974 7.52889C3.59797 7.51277 3.5995 7.49672 3.60135 7.48078C3.59764 7.51167 3.61053 7.46113 3.61303 7.4549C3.61537 7.4491 3.61513 7.44886 3.61585 7.44672C3.6173 7.44501 3.61843 7.44385 3.62294 7.43689C3.63454 7.41883 3.64808 7.40118 3.66121 7.38373C3.68909 7.34667 3.72639 7.31633 3.76603 7.28624C3.84829 7.22392 3.94135 7.17056 4.03747 7.12087C4.0448 7.13473 4.05696 7.14676 4.08017 7.1506C4.18571 7.16806 4.27845 7.16141 4.38496 7.1572C4.48269 7.15341 4.55407 7.18271 4.61917 7.22684C4.52273 7.40143 4.38689 7.56545 4.15896 7.65488C4.07509 7.68778 3.99678 7.69657 3.90936 7.69529ZM6.04451 9.16386C5.85299 9.35883 5.62442 9.52243 5.26243 9.449C4.80778 9.3567 4.75372 8.86469 4.80843 8.58457C4.82244 8.51284 4.76621 8.41206 4.64656 8.42353C4.45312 8.44215 4.16887 8.50496 4.17975 8.30309C4.18708 8.1666 4.21141 8.03377 4.21399 7.89777C4.22962 7.89337 4.24566 7.88947 4.26088 7.88452C4.60572 7.773 4.81294 7.4886 4.91752 7.23051C4.93089 7.19736 4.91808 7.15085 4.88174 7.12795C4.75847 7.05037 4.63303 6.99146 4.46931 6.98725C4.37746 6.98487 4.28425 7.00324 4.19377 7.02278C4.2185 6.96979 4.16033 6.90179 4.07163 6.91968C3.89003 6.95618 3.69997 7.011 3.54544 7.09621C3.30961 6.97407 3.14501 6.82286 3.21575 6.58907C3.28633 6.35582 3.592 6.24344 3.71423 6.03956C3.82275 5.85869 3.97035 5.68789 4.25347 5.67489C4.38375 5.6689 4.50533 5.70095 4.6211 5.74625C4.61192 5.78141 4.60491 5.8173 4.60064 5.85429C4.59572 5.89733 4.6377 5.9566 4.69128 5.97394C4.88537 6.03699 5.06085 6.06538 5.25413 6.08241C5.21497 6.21341 5.15978 6.3361 5.1585 6.47644C5.1585 6.4773 5.15938 6.47803 5.15938 6.47895C5.0656 6.5594 4.98648 6.65054 4.95466 6.74534C4.89737 6.91583 5.10347 7.04536 5.28225 7.13742C5.17114 7.31707 5.06536 7.54567 5.24325 7.70793C5.34815 7.80364 5.49592 7.84552 5.6523 7.86908C5.48149 7.97999 5.35484 8.12131 5.35597 8.27843C5.35822 8.61069 5.74117 8.74786 6.10783 8.83106C6.064 8.93929 6.03387 9.056 6.04451 9.16386ZM7.82805 9.39436C7.80799 9.36946 7.79195 9.34247 7.79663 9.32001C7.80396 9.28564 7.8067 9.24841 7.80629 9.21215C7.86463 9.20165 7.86253 9.12998 7.79453 9.12998C7.79284 9.12998 7.79228 9.13127 7.7905 9.13127C7.73257 9.03134 7.52431 9.04446 7.50988 9.1729C7.5015 9.24652 7.52801 9.31983 7.57353 9.38612C7.45373 9.35853 7.424 9.29181 7.44462 9.20806C7.45606 9.19518 7.45993 9.18016 7.45832 9.16588C7.52608 9.00137 7.74885 8.78912 7.89097 8.66294C8.0683 8.91298 8.36762 9.34333 7.82805 9.39436ZM8.179 8.66496C8.12776 8.60184 8.06967 8.54373 8.0061 8.49447C7.94149 8.44435 7.85069 8.47933 7.83192 8.53329C7.52004 8.65892 7.18221 8.92653 7.08674 9.17009C6.93591 9.19744 6.78316 9.21917 6.62919 9.22253C6.56264 9.22399 6.51664 9.21105 6.4807 9.19133C6.523 9.12876 6.55789 9.06412 6.58222 8.99844C6.61847 8.9004 6.51414 8.84375 6.41158 8.85151C6.41641 8.82904 6.42149 8.80719 6.42592 8.78692C6.43889 8.72875 6.40682 8.67222 6.32682 8.65483C6.09019 8.60331 5.56545 8.46144 5.7116 8.205C5.7887 8.06954 5.9612 7.98366 6.13088 7.90265C6.1594 8.00325 6.20556 8.10007 6.28001 8.20091C6.30627 8.23656 6.36976 8.26952 6.42608 8.26439C6.59092 8.24938 6.71524 8.20158 6.84552 8.12515C6.95984 8.05807 7.14644 7.96724 7.20832 7.86847C7.21388 7.85956 7.21388 7.85132 7.21613 7.84271C7.26334 7.87457 7.31177 7.90534 7.36236 7.93336C7.62937 8.08157 7.91063 8.15488 8.18899 8.16947C8.13977 8.32886 8.13509 8.50307 8.179 8.66496ZM9.71681 5.91253C10.3781 6.94501 8.79076 8.51211 7.45147 7.52614C7.05097 7.2313 7.08666 6.97193 7.33352 6.7504C7.57079 7.20615 8.13364 7.53469 8.81292 7.35931C9.57292 7.16312 9.76725 6.45172 9.58573 5.92718C9.57582 5.89843 9.55608 5.87993 9.53336 5.86619C9.5419 5.81883 9.49348 5.76688 9.41049 5.78049C9.1729 5.81937 8.93014 5.85692 8.6886 5.89946C8.56549 5.78507 8.58338 5.60023 8.49894 5.46935C8.38413 5.29166 8.12011 5.34513 7.91168 5.40215C7.79856 5.43309 7.6794 5.47949 7.58989 5.54145C7.4986 5.60469 7.50271 5.6614 7.53341 5.74856C7.55831 5.81937 7.62067 5.87999 7.68133 5.93511C7.7308 5.98016 7.81862 6.02228 7.83417 6.08217C7.83506 6.08558 7.83764 6.08784 7.83909 6.09083C7.64387 6.14852 7.45582 6.21793 7.27833 6.30235C7.27664 6.30186 7.27559 6.30094 7.2739 6.30052C7.05669 6.24967 6.73248 6.16695 6.7809 5.94976C6.82022 5.77323 7.05596 5.63393 7.22225 5.52423C7.26383 5.49682 7.27704 5.44683 7.26286 5.40788C7.20735 5.25607 7.14741 5.07904 7.15313 4.91307C7.24401 4.9171 7.33352 4.91307 7.41401 4.89878C7.46976 4.88896 7.49474 4.8519 7.49272 4.81522C7.65547 4.88737 7.82531 4.99029 7.86358 5.00988C7.91675 5.03717 7.97065 5.02801 8.00965 5.00305C8.01811 5.0064 8.02504 5.01062 8.03551 5.01281C8.14871 5.03656 8.25836 5.04254 8.37511 5.02789C8.65436 4.99297 8.82186 4.94347 8.86867 5.2322C8.87979 5.30039 8.93256 5.34776 9.02707 5.35221C9.30938 5.36546 9.59427 5.36058 9.87763 5.35996C9.94152 5.48846 9.90663 5.60847 9.86337 5.73526C9.76121 5.7308 9.66299 5.82847 9.71681 5.91253ZM9.28956 5.97449C9.2898 5.97955 9.28787 5.98383 9.28891 5.98907C9.37375 6.411 9.32823 6.93298 8.72703 7.12362C8.18078 7.29698 7.76182 6.94086 7.53252 6.60463C8.00707 6.31315 8.80937 6.10048 9.28956 5.97449ZM8.02802 6.03962C8.00385 5.91027 7.84738 5.82469 7.81403 5.69717C7.95414 5.61165 8.11874 5.56153 8.29454 5.53357C8.39477 5.65065 8.39469 5.80918 8.47751 5.93774C8.3254 5.96722 8.1757 6.00159 8.02802 6.03962ZM9.67129 5.05029C9.65461 5.06861 9.64615 5.0868 9.64108 5.10462C9.47527 5.10444 9.30946 5.10505 9.14405 5.11005C9.08516 4.9652 9.00709 4.8331 8.79648 4.78207C8.76184 4.77365 8.72687 4.7709 8.69182 4.77029C8.68965 4.76834 8.68876 4.76614 8.68618 4.76425C8.56791 4.6772 8.44472 4.59046 8.35376 4.48528C8.28431 4.40501 8.77231 4.21712 8.82951 4.19075C8.90485 4.15601 8.91967 4.09094 8.88398 4.03344C8.69359 3.727 8.66668 3.36349 8.80655 3.04301C8.97365 2.66003 9.26442 2.85964 9.46246 3.08758C9.44046 3.10705 9.42371 3.12994 9.42371 3.15808C9.42322 3.54058 9.335 3.91752 9.33419 4.29885C9.33403 4.35233 9.38971 4.3765 9.44336 4.37345C9.43047 4.41453 9.44965 4.46288 9.50387 4.49401C9.68169 4.59619 9.96319 4.59595 10.1855 4.55224C10.1352 4.75973 9.82042 4.88761 9.67129 5.05029ZM10.3719 3.58465C10.2425 3.36068 9.98752 3.21705 9.7206 3.09228C9.68716 3.04356 9.64777 2.99155 9.60378 2.94028C10.0261 2.97556 10.5938 2.85171 10.4971 3.32955C10.4845 3.39194 10.505 3.44712 10.5792 3.48222C10.7998 3.58648 10.9875 3.69477 11.1246 3.86398C11.2163 3.9771 11.1915 4.05535 11.1104 4.11029C11.0472 4.09997 10.9744 4.12836 10.9605 4.17433C10.7975 4.22011 10.5828 4.23342 10.4507 4.23818C10.4813 4.01799 10.4893 3.78756 10.3719 3.58465ZM10.6759 5.33732C10.6906 5.25119 10.7139 5.16109 10.7111 5.07557C10.7316 5.07703 10.7519 5.07868 10.773 5.07935C10.8362 5.08136 10.9485 5.06775 11.034 5.07703C11.0105 5.16054 11.0382 5.24496 11.0595 5.33463C10.9316 5.33457 10.8038 5.33555 10.6759 5.33732ZM11.3291 4.96355C11.3244 4.95897 11.3221 4.95366 11.3159 4.94963C11.2172 4.88572 11.1028 4.8715 10.9761 4.86698C10.8892 4.86387 10.7022 4.89176 10.6283 4.84842C10.5659 4.8118 10.4925 4.82157 10.4442 4.85087C10.5372 4.76956 10.6058 4.67927 10.6175 4.54663C10.7948 4.52343 10.9742 4.47826 11.128 4.41459C11.2545 4.53155 11.3741 4.62495 11.3244 4.88639C11.3193 4.9124 11.3197 4.93907 11.3291 4.96355Z" fill="#333333"/>
</svg>
