<svg width="19" height="12" viewBox="0 0 19 12" fill="none" xmlns="http://www.w3.org/2000/svg">
<path d="M5.54237 3.95043C5.60127 3.99347 5.67859 4.01509 5.75592 4.01509C5.83324 4.01509 5.91057 3.99347 5.96947 3.95043C6.08757 3.86415 6.08757 3.72469 5.96947 3.63841C5.66289 3.4142 5.66289 3.04965 5.96947 2.82545C6.23225 2.63347 6.37723 2.37837 6.37723 2.10695C6.37723 1.83552 6.23255 1.58043 5.96947 1.38844C5.85137 1.30216 5.66047 1.30216 5.54237 1.38844C5.42427 1.47472 5.42427 1.61419 5.54237 1.70047C5.69098 1.80904 5.77314 1.95336 5.77314 2.10695C5.77314 2.26053 5.69128 2.40485 5.54237 2.51342C5.0002 2.90953 5.0002 3.55433 5.54237 3.95043Z" fill="#333333"/>
<path d="M12.1874 3.95043C12.2463 3.99347 12.3236 4.01509 12.4009 4.01509C12.4783 4.01509 12.5556 3.99347 12.6145 3.95043C12.7326 3.86415 12.7326 3.72469 12.6145 3.63841C12.3079 3.4142 12.3079 3.04965 12.6145 2.82545C12.8773 2.63347 13.0222 2.37837 13.0222 2.10695C13.0222 1.83552 12.8776 1.58043 12.6145 1.38844C12.4964 1.30216 12.3055 1.30216 12.1874 1.38844C12.0693 1.47472 12.0693 1.61419 12.1874 1.70047C12.336 1.80904 12.4182 1.95336 12.4182 2.10695C12.4182 2.26053 12.3363 2.40485 12.1874 2.51342C11.6452 2.90953 11.6452 3.55433 12.1874 3.95043Z" fill="#333333"/>
<path d="M8.86512 2.62672C8.92401 2.66975 9.00134 2.69138 9.07866 2.69138C9.15598 2.69138 9.2333 2.66975 9.2922 2.62672C9.4103 2.54044 9.4103 2.40097 9.2922 2.31469C8.98563 2.09048 8.98563 1.72593 9.2922 1.50173C9.55497 1.30975 9.69995 1.05465 9.69995 0.783222C9.69995 0.511795 9.55527 0.256697 9.2922 0.0647122C9.1741 -0.0215707 8.98321 -0.0215707 8.86512 0.0647122C8.74702 0.150995 8.74702 0.29046 8.86512 0.376743C9.01372 0.485314 9.09587 0.629634 9.09587 0.783222C9.09587 0.93681 9.01402 1.08113 8.86512 1.1897C8.32296 1.58581 8.32296 2.23061 8.86512 2.62672Z" fill="#333333"/>
<path d="M7.65542 5.673C7.67747 5.673 7.69982 5.67124 7.72217 5.66771C8.15651 5.59621 8.60564 5.56002 9.0575 5.56002C9.0587 5.56002 9.05991 5.56002 9.06142 5.56002C9.22815 5.56002 9.36346 5.46137 9.36346 5.33955C9.36346 5.21752 9.22845 5.11865 9.06142 5.11865C9.06021 5.11865 9.0587 5.11865 9.05719 5.11865C8.56094 5.11865 8.0671 5.1586 7.58927 5.23716C7.42647 5.26386 7.32438 5.38193 7.36093 5.50087C7.39295 5.60349 7.51739 5.673 7.65542 5.673Z" fill="#333333"/>
<path d="M2.96663 9.30809C2.98506 9.31074 3.00318 9.31184 3.021 9.31184C3.16417 9.31184 3.29133 9.23726 3.31791 9.13089C3.63173 7.8735 4.66896 6.75469 6.09249 6.13858C6.23596 6.07657 6.28338 5.94108 6.19851 5.83626C6.11333 5.73144 5.92818 5.69679 5.78471 5.7588C4.21287 6.43913 3.06872 7.67004 2.72379 9.05145C2.69358 9.1715 2.80232 9.28625 2.96663 9.30809Z" fill="#333333"/>
<path d="M16.8009 9.00797C16.2536 6.6598 13.7481 4.79403 10.5586 4.34209C10.5637 4.30678 10.5715 4.27126 10.5715 4.23617C10.5715 3.62778 9.89406 3.13281 9.06133 3.13281C8.22859 3.13281 7.5511 3.62778 7.5511 4.23617C7.5511 4.27126 7.55866 4.30678 7.56409 4.34209C4.37451 4.79403 1.86905 6.6598 1.32175 9.00797C0.690473 9.26902 0 9.65321 0 10.0842C0 11.2063 4.68531 11.9599 9.06133 11.9599C13.4373 11.9599 18.1227 11.2063 18.1227 10.0842C18.1227 9.65321 17.4322 9.26902 16.8009 9.00797ZM8.15701 4.27435C8.1558 4.26155 8.15519 4.24875 8.15519 4.23639C8.15519 3.8714 8.56174 3.57438 9.06133 3.57438C9.56091 3.57438 9.96746 3.8714 9.96746 4.23639C9.96746 4.24897 9.96685 4.26155 9.96565 4.27435C9.95145 4.27324 9.93725 4.2728 9.92336 4.2717C9.81946 4.26331 9.71495 4.25735 9.60984 4.25206C9.57118 4.25007 9.53282 4.2472 9.49415 4.24566C9.35099 4.23992 9.20691 4.23661 9.06163 4.23661C8.91634 4.23661 8.77227 4.23992 8.6291 4.24566C8.59044 4.2472 8.55208 4.25007 8.51342 4.25206C8.40831 4.25735 8.3038 4.26353 8.1999 4.2717C8.1854 4.2728 8.1712 4.27302 8.15701 4.27435ZM7.97366 4.73731C8.13586 4.71966 8.29897 4.70686 8.46267 4.69715C8.4962 4.69517 8.52973 4.6934 8.56325 4.69163C8.8949 4.6753 9.22805 4.6753 9.5597 4.69163C9.59323 4.6934 9.62675 4.69517 9.66028 4.69715C9.82399 4.70686 9.98709 4.71966 10.1493 4.73731C13.296 5.08487 15.7845 6.91578 16.2361 9.22047C16.25 9.29131 16.2612 9.36236 16.2711 9.43342C16.2744 9.45791 16.279 9.48219 16.282 9.50668C16.2938 9.60444 16.3025 9.7022 16.3068 9.79995C11.5616 10.6034 6.56161 10.6034 1.81649 9.79995C1.82102 9.7022 1.82948 9.60444 1.84126 9.50668C1.84428 9.48219 1.84851 9.45791 1.85213 9.43342C1.8621 9.36214 1.87328 9.29109 1.88717 9.22047C2.33843 6.91578 4.82697 5.08465 7.97366 4.73731ZM9.06133 11.5185C3.89758 11.5185 0.604088 10.5765 0.604088 10.0842C0.604088 9.99966 0.747257 9.81342 1.22751 9.57046C1.2263 9.58303 1.2269 9.59539 1.2257 9.60797C1.21543 9.7289 1.20818 9.85071 1.20818 9.97384V10.1477L1.43984 10.1886C3.93292 10.6255 6.49727 10.8444 9.06133 10.8444C11.6254 10.8444 14.1897 10.6257 16.6828 10.1886L16.9145 10.1477V9.97384C16.9145 9.85071 16.9072 9.72912 16.897 9.60797C16.8957 9.59539 16.8964 9.58303 16.8951 9.57046C17.3754 9.81342 17.5186 9.99966 17.5186 10.0842C17.5186 10.5765 14.2251 11.5185 9.06133 11.5185Z" fill="#333333"/>
</svg>
