<svg width="17" height="7" viewBox="0 0 17 7" fill="none" xmlns="http://www.w3.org/2000/svg">
<path d="M15.9919 4.42715C15.5259 3.77755 14.9275 3.18252 14.2231 2.64954C14.1579 2.24856 13.9371 1.8585 13.5431 1.5399C12.8965 1.01833 12.0019 0.680377 11.0462 0.588072C11.0394 0.581117 11.036 0.572696 11.0292 0.56574C10.6692 0.205942 10.1169 0 9.51375 0H6.79127C6.18809 0 5.63585 0.205942 5.27583 0.56574C5.26905 0.572696 5.26564 0.581117 5.25886 0.588072C4.30314 0.680377 3.40922 1.01833 2.76191 1.54041C2.36795 1.85852 2.14787 2.24859 2.08196 2.64907C1.37755 3.18255 0.780484 3.77608 0.329466 4.40484C-0.120884 4.96165 -0.108658 5.64847 0.360701 6.19783C0.788635 6.69807 1.59627 6.99385 2.41208 6.99385C2.69262 6.99385 2.97384 6.95912 3.24146 6.88566L5.82603 6.13035C6.15479 6.20628 6.4958 6.25292 6.84492 6.25292C6.90743 6.25292 6.9699 6.24201 7.0324 6.23952C7.30954 6.47673 7.70894 6.61916 8.15793 6.61916C8.60487 6.61916 9.00294 6.47673 9.27804 6.24001C9.33646 6.24199 9.39556 6.25241 9.45395 6.25241C9.80105 6.25241 10.1414 6.20477 10.4715 6.12835L13.0825 6.89061C13.3495 6.96207 13.6293 6.99632 13.9058 6.99632C14.7182 6.99632 15.513 6.70253 15.945 6.19783C16.4137 5.64847 16.4259 4.96163 15.9919 4.42715ZM6.05089 5.13979C5.9782 5.11746 5.91028 5.09066 5.84237 5.06286C5.76697 5.03209 5.69361 4.99836 5.62499 4.96014C5.58628 4.9393 5.54415 4.92094 5.50747 4.8981L5.24323 4.69711L3.7964 3.59492C3.75498 3.56316 3.72167 3.52792 3.68636 3.49319C3.66869 3.47533 3.64627 3.45944 3.62997 3.44108C3.60552 3.4128 3.58855 3.38202 3.56747 3.35224C3.54846 3.32445 3.52535 3.29816 3.50974 3.26936C3.49548 3.24256 3.48733 3.21428 3.47647 3.18699C3.46221 3.15226 3.44524 3.1185 3.43638 3.08326C3.43027 3.06093 3.43027 3.03811 3.42619 3.01527C3.41941 2.97309 3.41193 2.9304 3.41193 2.88723C3.4133 2.64307 3.53012 2.39891 3.76921 2.20636C4.08303 1.95278 4.48514 1.76419 4.92734 1.65651C4.9389 1.70664 4.95791 1.75577 4.97691 1.80439C4.9837 1.82326 4.9837 1.84261 4.99185 1.86096L6.46246 5.23505C6.31851 5.21621 6.18335 5.1795 6.05089 5.13979ZM12.8788 3.01529C12.8748 3.03811 12.8748 3.06095 12.8686 3.08329C12.8598 3.11902 12.8428 3.15277 12.8286 3.1875C12.817 3.21479 12.8095 3.24259 12.7953 3.26938C12.7783 3.30065 12.7539 3.32942 12.7328 3.3592C12.7131 3.38649 12.6981 3.41477 12.6751 3.44059C12.6268 3.49519 12.5718 3.5473 12.5086 3.59494L10.8091 4.8897C10.6889 4.96563 10.5564 5.02567 10.4199 5.07878C10.3805 5.09366 10.3418 5.10904 10.3017 5.12244C10.155 5.17057 10.0035 5.21077 9.84591 5.23261L11.3131 1.8605C11.3213 1.84263 11.3206 1.82428 11.3274 1.80641C11.3471 1.7568 11.3661 1.70715 11.3777 1.65654C11.8192 1.76422 12.222 1.9528 12.5358 2.2059C12.7749 2.39895 12.8917 2.64311 12.8931 2.88728C12.8931 2.93043 12.8856 2.97311 12.8788 3.01529Z" fill="#333333"/>
</svg>
