<svg width="18" height="12" viewBox="0 0 18 12" fill="none" xmlns="http://www.w3.org/2000/svg">
<path d="M13.4286 3.02151C13.0503 2.76285 12.7192 2.38907 12.3685 1.99327C11.9607 1.53292 11.539 1.05694 10.975 0.679853C10.291 0.222354 9.52551 0 8.63499 0C7.74448 0 6.97903 0.222354 6.29494 0.679803C5.73101 1.05691 5.30931 1.5329 4.90147 1.99322C4.55084 2.38902 4.21965 2.76285 3.84136 3.02146C2.40461 4.00378 0 5.64784 0 7.93726C0 9.13856 0.76929 10.0183 2.28659 10.552C3.67058 11.0388 5.68783 11.2655 8.63499 11.2655C11.5822 11.2655 13.5994 11.0388 14.9834 10.552C16.5007 10.0183 17.27 9.13856 17.27 7.93726C17.27 5.64784 14.8654 4.00378 13.4286 3.02151ZM14.5002 9.79848C13.2895 10.2244 11.3709 10.4314 8.63499 10.4314C5.89905 10.4314 3.9805 10.2244 2.76981 9.79848C1.63319 9.39868 1.12629 8.82467 1.12629 7.93726C1.12629 6.01303 3.21994 4.58158 4.60532 3.63438C5.08534 3.30621 5.47061 2.87137 5.84316 2.45084C6.21193 2.03459 6.59322 1.60417 7.04973 1.29893C7.52395 0.981846 8.02764 0.834159 8.63499 0.834159C9.24234 0.834159 9.74604 0.981846 10.2202 1.29895C10.6767 1.60419 11.058 2.03461 11.4268 2.45087C11.7993 2.8714 12.1846 3.30626 12.6646 3.63441C14.05 4.58161 16.1437 6.01306 16.1437 7.93728C16.1437 8.82468 15.6368 9.39868 14.5002 9.79848Z" fill="#333333"/>
<path d="M7.71596 3.2743L7.04473 2.60449C6.57412 2.86319 6.48804 3.40495 6.36887 4.15485C6.22282 5.07402 6.04108 6.21794 5.14014 6.87344L5.92946 7.46846C7.11327 6.6071 7.32955 5.24609 7.48744 4.2523C7.54677 3.87901 7.62796 3.36783 7.74136 3.25704C7.74126 3.25714 7.73347 3.26469 7.71596 3.2743Z" fill="#333333"/>
<path d="M10.9013 4.15488C10.7821 3.40495 10.696 2.86317 10.2254 2.60449L9.55417 3.2743C9.53667 3.26469 9.52888 3.25714 9.52881 3.25709C9.64218 3.36786 9.7234 3.87909 9.78273 4.25233C9.94062 5.24609 10.1569 6.60713 11.3407 7.46849L12.1301 6.87347C11.2291 6.21797 11.0474 5.07402 10.9013 4.15488Z" fill="#333333"/>
</svg>
