<svg width="16" height="11" viewBox="0 0 16 11" fill="none" xmlns="http://www.w3.org/2000/svg">
<path d="M15.9906 5.19231C15.9906 4.90556 15.6651 4.67308 15.2637 4.67308H15.1975C14.8947 3.50049 13.586 2.57651 11.9367 2.37671C11.6168 1.02928 9.97114 0 7.99529 0C6.01943 0 4.37376 1.02928 4.0539 2.37671C2.40459 2.57651 1.09589 3.50049 0.793132 4.67308H0.726844C0.325432 4.67308 0 4.90556 0 5.19231C0 7.24378 1.52216 9.04577 3.80173 10.053C3.69717 10.143 3.63422 10.2585 3.63422 10.3846C3.63422 10.6713 3.95965 10.9038 4.36106 10.9038H11.6295C12.0309 10.9038 12.3563 10.6713 12.3563 10.3846C12.3563 10.2585 12.2934 10.143 12.1888 10.053C14.4684 9.04577 15.9906 7.24378 15.9906 5.19231ZM4.72449 3.37498C5.1259 3.37498 5.45133 3.1425 5.45133 2.85575C5.45133 1.85368 6.59252 1.03846 7.99529 1.03846C9.398 1.03846 10.5392 1.85368 10.5392 2.85575C10.5392 3.1425 10.8647 3.37498 11.2661 3.37498C12.4162 3.37498 13.3901 3.92328 13.7037 4.67308H10.1758C10.4969 4.50101 10.5621 4.17556 10.3212 3.94616C10.0803 3.71673 9.62472 3.67028 9.3036 3.84232L8.72213 4.15385V3.01152C8.72213 2.72477 8.3967 2.49229 7.99529 2.49229C7.59387 2.49229 7.26844 2.72477 7.26844 3.01152V4.15385L6.68697 3.84232C6.36585 3.67025 5.91026 3.71677 5.66938 3.94616C5.42851 4.17556 5.49363 4.50101 5.81475 4.67308L5.8148 4.67312H2.28689C2.60041 3.92328 3.57428 3.37498 4.72449 3.37498ZM7.99529 9.86532C4.63392 9.86532 1.85655 8.04477 1.49381 5.71154H7.99354C7.99393 5.71154 7.99436 5.71157 7.99475 5.71157C7.99495 5.71157 7.99514 5.71154 7.99533 5.71154C7.99553 5.71154 7.99572 5.71157 7.99591 5.71157C7.9963 5.71157 7.99674 5.71154 7.99713 5.71154H14.4968C14.134 8.04477 11.3566 9.86532 7.99529 9.86532Z" fill="#333333"/>
</svg>
