<svg width="16" height="8" viewBox="0 0 16 8" fill="none" xmlns="http://www.w3.org/2000/svg">
<path d="M12.8534 1.60388C12.8534 1.20911 13.3128 0.861018 13.8775 0.861018C14.4422 0.861018 14.9016 1.1822 14.9016 1.57697C14.9016 1.97174 14.4422 2.29292 13.8775 2.29292C13.5768 2.29292 13.333 2.46332 13.333 2.67358C13.333 2.88376 13.5768 3.05423 13.8775 3.05423C15.0427 3.05423 15.9906 2.39158 15.9906 1.57693C15.9906 0.762363 15.0427 0.0997087 13.8775 0.0997087C12.817 0.0997087 11.9366 0.648803 11.7871 1.36167C11.0911 1.53451 10.4528 1.61905 9.84481 1.61905C9.8447 1.61905 9.84454 1.61905 9.84438 1.61905C8.55512 1.6189 7.59412 1.23557 6.57681 0.829852C5.96906 0.587412 5.34069 0.336766 4.63818 0.173069C4.14544 0.0582294 3.64628 0 3.15461 0C1.34375 0 0.207021 0.780167 0.15948 0.81329C0.0300476 0.903777 -0.0256232 1.03367 0.0110959 1.15905C0.0478688 1.28439 0.172348 1.38843 0.342267 1.43589C1.9788 1.89352 2.88062 2.66259 3.75267 3.40628C4.61907 4.14504 5.50948 4.90326 7.04377 5.18572C6.53132 5.51251 6.03512 5.99291 6.03512 6.62899C6.03512 6.83917 6.27891 7.00957 6.57961 7.00957H10.1732C10.1737 7.00957 10.174 7.00957 10.1743 7.00957C10.4751 7.00957 10.7188 6.83917 10.7188 6.62899C10.7188 6.61973 10.7184 6.61054 10.7174 6.60144C10.7026 5.94676 10.162 5.45943 9.63036 5.13693C11.517 4.62943 12.8534 3.00876 12.8534 1.60388ZM7.23959 6.24841C7.48391 5.85157 8.05715 5.57281 8.37572 5.44231C8.69338 5.57326 9.26683 5.85304 9.51218 6.24841H7.23959ZM10.7318 3.60882C10.0588 4.20929 9.22624 4.54004 8.38746 4.54004C6.49029 4.54004 5.65388 3.82672 4.5949 2.92366C3.8322 2.27327 2.98464 1.55055 1.62453 1.02076C2.00346 0.886011 2.52436 0.761384 3.15467 0.761384C3.52902 0.761384 3.91226 0.80644 4.29382 0.895421C4.89441 1.03533 5.4495 1.25677 6.03717 1.49111C7.13304 1.92823 8.26627 2.38029 9.84433 2.38036C9.84454 2.38036 9.8447 2.38036 9.84492 2.38036C10.4357 2.38036 11.0417 2.31649 11.6805 2.18599C11.5338 2.68457 11.2016 3.18955 10.7318 3.60882Z" fill="#333333"/>
</svg>
