<svg width="16" height="14" viewBox="0 0 16 14" fill="none" xmlns="http://www.w3.org/2000/svg">
<path d="M7.60254 3.0696L7.2962 2.88972C7.23144 2.8517 7.18286 2.80326 7.15187 2.74923C7.12639 2.70469 7.11259 2.6564 7.11353 2.6064C7.1141 2.57547 7.12052 2.54538 7.1314 2.51639C7.1594 2.44162 7.21969 2.37508 7.30665 2.3268C7.72965 2.09195 7.97967 1.7347 7.99261 1.34668C8.00554 0.958629 7.7797 0.592905 7.37285 0.343261C7.10866 0.181132 6.71467 0.206197 6.49283 0.399208C6.27095 0.59222 6.30522 0.88004 6.56937 1.04217C6.72602 1.13829 6.74584 1.26027 6.74372 1.32441C6.74159 1.38852 6.71366 1.50963 6.5507 1.60006C6.12183 1.83823 5.87166 2.20048 5.86442 2.59403C5.85714 2.98756 6.09379 3.35465 6.51369 3.60116L6.82004 3.78104C6.93543 3.84878 7.0736 3.88171 7.21093 3.88171C7.39371 3.88171 7.57483 3.82337 7.69822 3.71119C7.91426 3.5147 7.87145 3.22746 7.60254 3.0696Z" fill="#333333"/>
<path d="M10.1966 3.30557L9.83733 3.09457C9.80515 3.07567 9.77661 3.05453 9.75008 3.0323C9.641 2.94081 9.5805 2.82384 9.58277 2.69975C9.58461 2.60181 9.62504 2.50898 9.69715 2.4302C9.73862 2.38489 9.79041 2.34419 9.85185 2.31009C10.3217 2.04921 10.5994 1.65241 10.6137 1.22142C10.6281 0.790452 10.3773 0.384207 9.92544 0.106944C9.66125 -0.0551851 9.26727 -0.030147 9.04539 0.162866C8.82352 0.355852 8.85779 0.643699 9.12193 0.805802C9.28143 0.903664 9.36994 1.04705 9.36486 1.19917C9.35977 1.3513 9.26176 1.49136 9.09595 1.58341C8.61963 1.84787 8.34175 2.25025 8.33368 2.68735C8.3256 3.12445 8.58845 3.53217 9.05476 3.80599L9.41408 4.01698C9.52947 4.08472 9.66767 4.11766 9.80497 4.11766C9.98774 4.11766 10.1688 4.05932 10.2923 3.94716C10.5083 3.7507 10.4656 3.46346 10.1966 3.30557Z" fill="#333333"/>
<path d="M12.6924 3.0696L12.386 2.88972C12.3213 2.8517 12.2727 2.80329 12.2417 2.74923C12.2162 2.70469 12.2024 2.6564 12.2034 2.6064C12.2039 2.57547 12.2103 2.54535 12.2212 2.51636C12.2492 2.44162 12.3095 2.37506 12.3965 2.3268C12.8195 2.09195 13.0695 1.7347 13.0824 1.34668C13.0954 0.958629 12.8695 0.592905 12.4627 0.343261C12.1985 0.181132 11.8045 0.206197 11.5827 0.399208C11.3608 0.59222 11.3951 0.88004 11.6592 1.04217C11.8159 1.13829 11.8357 1.26027 11.8335 1.32441C11.8314 1.38852 11.8034 1.50963 11.6405 1.60006C11.2117 1.83823 10.9615 2.20048 10.9543 2.59403C10.947 2.98756 11.1836 3.35465 11.6035 3.60116L11.9099 3.78104C12.0253 3.84878 12.1634 3.88171 12.3008 3.88171C12.4835 3.88171 12.6647 3.82337 12.788 3.71119C13.0041 3.5147 12.9613 3.22746 12.6924 3.0696Z" fill="#333333"/>
<path d="M15.9906 6.37265V4.73181C15.9906 4.47977 15.7109 4.27178 15.3659 4.27178C15.1394 4.27178 14.9416 4.36672 14.8321 4.48843H4.03964L1.17888 0.475764C1.0196 0.252212 0.642365 0.16712 0.336414 0.28349C0.0303914 0.399834 -0.0885655 0.676279 0.0706443 0.899884L2.87339 4.83562V6.37265C2.87339 8.22405 4.30909 9.83422 6.40743 10.6376L4.45698 12.7698C4.26531 12.9793 4.34242 13.2627 4.6292 13.4028C4.73583 13.4548 4.85645 13.4798 4.97569 13.4798C5.17728 13.4798 5.37516 13.4086 5.49559 13.2769L6.36346 12.3282L8.82815 12.8838V13.0069C8.82815 13.259 9.10783 13.4633 9.45277 13.4633C9.79775 13.4633 10.0774 13.2589 10.0774 13.0069V12.8838L12.5421 12.3282L13.41 13.2769C13.5304 13.4086 13.7283 13.4798 13.9299 13.4798C14.0491 13.4798 14.1697 13.4549 14.2763 13.4028C14.5632 13.2627 14.6402 12.9793 14.4486 12.7698L12.4894 10.6281C14.5695 9.82156 15.9906 8.21681 15.9906 6.37265ZM4.12271 5.40115H14.7414V5.79665H4.12271V5.40115ZM8.82822 11.9286L7.08787 11.5363L7.59008 10.9873C7.9885 11.0731 8.40252 11.1318 8.82822 11.1606V11.9286ZM10.0775 11.9287V11.1589C10.5015 11.1287 10.9138 11.0687 11.3105 10.9818L11.8178 11.5364L10.0775 11.9287ZM9.44243 10.2688H9.43724C6.66495 10.2688 4.38206 8.71728 4.14368 6.70934H14.7205C14.4828 8.71728 12.2065 10.2688 9.44243 10.2688Z" fill="#333333"/>
</svg>
