<svg width="16" height="12" viewBox="0 0 16 12" fill="none" xmlns="http://www.w3.org/2000/svg">
<path d="M15.2638 5.31006H0.726847C0.325434 5.31006 0 5.54782 0 5.84109C0 7.93919 1.52216 9.78218 3.80175 10.8123C3.69718 10.9043 3.63423 11.0225 3.63423 11.1514C3.63423 11.4447 3.95967 11.6824 4.36108 11.6824H11.6295C12.031 11.6824 12.3564 11.4447 12.3564 11.1514C12.3564 11.0225 12.2935 10.9043 12.1889 10.8123C14.4685 9.78218 15.9906 7.93919 15.9906 5.84109C15.9906 5.54782 15.6652 5.31006 15.2638 5.31006Z" fill="#333333"/>
<path d="M13.4929 6.14941H2.78026C2.48445 6.14941 2.24463 6.31767 2.24463 6.52522C2.24463 8.01001 3.36635 9.31427 5.04624 10.0433C4.96918 10.1084 4.9228 10.192 4.9228 10.2832C4.9228 10.4908 5.16262 10.659 5.45843 10.659H10.8148C11.1106 10.659 11.3504 10.4908 11.3504 10.2832C11.3504 10.192 11.304 10.1084 11.227 10.0433C12.9068 9.31427 14.0286 8.01001 14.0286 6.52522C14.0286 6.31767 13.7887 6.14941 13.4929 6.14941Z" fill="white"/>
<path d="M5.11764 0.155543C4.83383 -0.0518772 4.37353 -0.0518064 4.08967 0.155508C3.69305 0.445308 3.14976 0.842165 3.1499 1.59304C3.14976 2.34402 3.69296 2.74084 4.08963 3.03057C4.44603 3.29099 4.60361 3.41869 4.60361 3.7172C4.60361 4.01047 4.92904 4.24823 5.33046 4.24823C5.73188 4.24823 6.05731 4.01047 6.05731 3.7172C6.05731 2.96614 5.51411 2.56932 5.11744 2.27959C4.76109 2.01925 4.60356 1.89159 4.60361 1.59304C4.60356 1.2946 4.76114 1.16691 5.11759 0.90649C5.4015 0.699141 5.4015 0.362928 5.11764 0.155543Z" fill="#333333"/>
<path d="M8.50928 0.155543C8.22547 -0.0518772 7.76518 -0.0518064 7.48132 0.155508C7.08465 0.445273 6.54141 0.842129 6.5415 1.59304C6.54136 2.34402 7.08456 2.74084 7.48122 3.03057C7.83767 3.29099 7.99525 3.41869 7.99525 3.7172C7.99525 4.01047 8.32068 4.24823 8.7221 4.24823C9.12351 4.24823 9.44894 4.01047 9.44894 3.7172C9.44894 2.96614 8.90575 2.56932 8.50913 2.27959C8.15273 2.01925 7.9952 1.89159 7.99525 1.59304C7.9952 1.2946 8.15278 1.16691 8.50923 0.90649C8.79313 0.699141 8.79313 0.362928 8.50928 0.155543Z" fill="#333333"/>
<path d="M11.9014 0.155543C11.6176 -0.0518772 11.1573 -0.0518064 10.8734 0.155508C10.4767 0.445273 9.9335 0.842129 9.93359 1.59304C9.93345 2.34402 10.4766 2.74084 10.8733 3.03057C11.2298 3.29099 11.3873 3.41869 11.3873 3.7172C11.3873 4.01047 11.7128 4.24823 12.1142 4.24823C12.5156 4.24823 12.841 4.01047 12.841 3.7172C12.841 2.96614 12.2978 2.56932 11.9012 2.27959C11.5448 2.01925 11.3873 1.89159 11.3873 1.59304C11.3873 1.2946 11.5449 1.16691 11.9013 0.90649C12.1852 0.699141 12.1852 0.362928 11.9014 0.155543Z" fill="#333333"/>
</svg>
