<svg width="31" height="31" viewBox="0 0 31 31" fill="none" xmlns="http://www.w3.org/2000/svg">
<path fill-rule="evenodd" clip-rule="evenodd" d="M21.161 18.0167H11.3211L9.20663 10.2954H25.036L21.161 18.0167ZM27.2319 8.9415C26.7578 8.17708 25.9363 7.72152 25.0348 7.72152H8.50143L7.70447 4.80928C7.55076 4.24948 7.04055 3.86084 6.45801 3.86084H3.87467C3.16038 3.86084 2.58301 4.43737 2.58301 5.14773C2.58301 5.8581 3.16038 6.43463 3.87467 6.43463H5.47117L9.08655 19.642C9.24026 20.2018 9.75047 20.5905 10.333 20.5905H21.958C22.4476 20.5905 22.8945 20.3151 23.1141 19.8788L27.3456 11.4458C27.7498 10.6415 27.7059 9.70592 27.2319 8.9415ZM9.68745 23.1643C8.61795 23.1643 7.74995 24.0278 7.74995 25.0946C7.74995 26.1615 8.61795 27.025 9.68745 27.025C10.757 27.025 11.625 26.1615 11.625 25.0946C11.625 24.0278 10.757 23.1643 9.68745 23.1643ZM20.6666 25.0946C20.6666 24.0278 21.5346 23.1643 22.6041 23.1643C23.6736 23.1643 24.5416 24.0278 24.5416 25.0946C24.5416 26.1615 23.6736 27.025 22.6041 27.025C21.5346 27.025 20.6666 26.1615 20.6666 25.0946Z" fill="black"/>
<mask id="mask0_18267_156" style="mask-type:alpha" maskUnits="userSpaceOnUse" x="2" y="3" width="26" height="25">
<path fill-rule="evenodd" clip-rule="evenodd" d="M21.161 18.0167H11.3211L9.20663 10.2954H25.036L21.161 18.0167ZM27.2319 8.9415C26.7578 8.17708 25.9363 7.72152 25.0348 7.72152H8.50143L7.70447 4.80928C7.55076 4.24948 7.04055 3.86084 6.45801 3.86084H3.87467C3.16038 3.86084 2.58301 4.43737 2.58301 5.14773C2.58301 5.8581 3.16038 6.43463 3.87467 6.43463H5.47117L9.08655 19.642C9.24026 20.2018 9.75047 20.5905 10.333 20.5905H21.958C22.4476 20.5905 22.8945 20.3151 23.1141 19.8788L27.3456 11.4458C27.7498 10.6415 27.7059 9.70592 27.2319 8.9415ZM9.68745 23.1643C8.61795 23.1643 7.74995 24.0278 7.74995 25.0946C7.74995 26.1615 8.61795 27.025 9.68745 27.025C10.757 27.025 11.625 26.1615 11.625 25.0946C11.625 24.0278 10.757 23.1643 9.68745 23.1643ZM20.6666 25.0946C20.6666 24.0278 21.5346 23.1643 22.6041 23.1643C23.6736 23.1643 24.5416 24.0278 24.5416 25.0946C24.5416 26.1615 23.6736 27.025 22.6041 27.025C21.5346 27.025 20.6666 26.1615 20.6666 25.0946Z" fill="white"/>
</mask>
<g mask="url(#mask0_18267_156)">
<rect width="31" height="30.8855" fill="#00AC4E"/>
</g>
</svg>
