<svg width="25" height="26" viewBox="0 0 25 26" fill="none" xmlns="http://www.w3.org/2000/svg">
<path fill-rule="evenodd" clip-rule="evenodd" d="M14.3972 7.82648C14.3972 6.69216 13.4747 5.7697 12.3404 5.7697C11.2061 5.7697 10.2836 6.69216 10.2836 7.82648C10.2836 8.96079 11.2061 9.88326 12.3404 9.88326C13.4747 9.88326 14.3972 8.96079 14.3972 7.82648ZM16.4539 7.82646C16.4539 10.0951 14.6089 11.94 12.3403 11.94C10.0717 11.94 8.22675 10.0951 8.22675 7.82646C8.22675 5.55782 10.0717 3.71289 12.3403 3.71289C14.6089 3.71289 16.4539 5.55782 16.4539 7.82646ZM5.1416 21.1956C5.1416 17.226 8.37178 13.9968 12.3403 13.9968C16.3089 13.9968 19.5391 17.226 19.5391 21.1956C19.5391 21.7632 19.0794 22.224 18.5107 22.224C17.942 22.224 17.4823 21.7632 17.4823 21.1956C17.4823 18.3603 15.1756 16.0536 12.3403 16.0536C9.50507 16.0536 7.19838 18.3603 7.19838 21.1956C7.19838 21.7632 6.73869 22.224 6.16999 22.224C5.60129 22.224 5.1416 21.7632 5.1416 21.1956Z" fill="black"/>
<mask id="mask0_18242_219" style="mask-type:alpha" maskUnits="userSpaceOnUse" x="5" y="3" width="15" height="20">
<path fill-rule="evenodd" clip-rule="evenodd" d="M14.3972 7.82648C14.3972 6.69216 13.4747 5.7697 12.3404 5.7697C11.2061 5.7697 10.2836 6.69216 10.2836 7.82648C10.2836 8.96079 11.2061 9.88326 12.3404 9.88326C13.4747 9.88326 14.3972 8.96079 14.3972 7.82648ZM16.4539 7.82646C16.4539 10.0951 14.6089 11.94 12.3403 11.94C10.0717 11.94 8.22675 10.0951 8.22675 7.82646C8.22675 5.55782 10.0717 3.71289 12.3403 3.71289C14.6089 3.71289 16.4539 5.55782 16.4539 7.82646ZM5.1416 21.1956C5.1416 17.226 8.37178 13.9968 12.3403 13.9968C16.3089 13.9968 19.5391 17.226 19.5391 21.1956C19.5391 21.7632 19.0794 22.224 18.5107 22.224C17.942 22.224 17.4823 21.7632 17.4823 21.1956C17.4823 18.3603 15.1756 16.0536 12.3403 16.0536C9.50507 16.0536 7.19838 18.3603 7.19838 21.1956C7.19838 21.7632 6.73869 22.224 6.16999 22.224C5.60129 22.224 5.1416 21.7632 5.1416 21.1956Z" fill="white"/>
</mask>
<g mask="url(#mask0_18242_219)">
<rect y="0.627686" width="24.6814" height="24.6814" fill="white"/>
</g>
</svg>
