<svg width="31" height="31" viewBox="0 0 31 31" fill="none" xmlns="http://www.w3.org/2000/svg">
<path fill-rule="evenodd" clip-rule="evenodd" d="M18.0835 9.04172C18.0835 7.61701 16.9248 6.45839 15.5001 6.45839C14.0754 6.45839 12.9168 7.61701 12.9168 9.04172C12.9168 10.4664 14.0754 11.6251 15.5001 11.6251C16.9248 11.6251 18.0835 10.4664 18.0835 9.04172ZM20.6668 9.04167C20.6668 11.8911 18.3496 14.2083 15.5002 14.2083C12.6507 14.2083 10.3335 11.8911 10.3335 9.04167C10.3335 6.19225 12.6507 3.875 15.5002 3.875C18.3496 3.875 20.6668 6.19225 20.6668 9.04167ZM6.4585 25.8333C6.4585 20.8474 10.5156 16.7916 15.5002 16.7916C20.4847 16.7916 24.5418 20.8474 24.5418 25.8333C24.5418 26.5463 23.9645 27.1249 23.2502 27.1249C22.5359 27.1249 21.9585 26.5463 21.9585 25.8333C21.9585 22.2722 19.0613 19.3749 15.5002 19.3749C11.939 19.3749 9.04183 22.2722 9.04183 25.8333C9.04183 26.5463 8.46445 27.1249 7.75016 27.1249C7.03587 27.1249 6.4585 26.5463 6.4585 25.8333Z" fill="black"/>
<mask id="mask0_18247_788" style="mask-type:alpha" maskUnits="userSpaceOnUse" x="6" y="3" width="19" height="25">
<path fill-rule="evenodd" clip-rule="evenodd" d="M18.0835 9.04172C18.0835 7.61701 16.9248 6.45839 15.5001 6.45839C14.0754 6.45839 12.9168 7.61701 12.9168 9.04172C12.9168 10.4664 14.0754 11.6251 15.5001 11.6251C16.9248 11.6251 18.0835 10.4664 18.0835 9.04172ZM20.6668 9.04167C20.6668 11.8911 18.3496 14.2083 15.5002 14.2083C12.6507 14.2083 10.3335 11.8911 10.3335 9.04167C10.3335 6.19225 12.6507 3.875 15.5002 3.875C18.3496 3.875 20.6668 6.19225 20.6668 9.04167ZM6.4585 25.8333C6.4585 20.8474 10.5156 16.7916 15.5002 16.7916C20.4847 16.7916 24.5418 20.8474 24.5418 25.8333C24.5418 26.5463 23.9645 27.1249 23.2502 27.1249C22.5359 27.1249 21.9585 26.5463 21.9585 25.8333C21.9585 22.2722 19.0613 19.3749 15.5002 19.3749C11.939 19.3749 9.04183 22.2722 9.04183 25.8333C9.04183 26.5463 8.46445 27.1249 7.75016 27.1249C7.03587 27.1249 6.4585 26.5463 6.4585 25.8333Z" fill="white"/>
</mask>
<g mask="url(#mask0_18247_788)">
<rect width="31" height="31" fill="#00AC4E"/>
</g>
</svg>
