<svg width="17" height="17" viewBox="0 0 17 17" fill="none" xmlns="http://www.w3.org/2000/svg">
<path fill-rule="evenodd" clip-rule="evenodd" d="M4.67484 2.83317C3.65909 2.83317 2.83317 3.65909 2.83317 4.67484C2.83317 9.908 7.09096 14.1665 12.3248 14.1665C13.3399 14.1665 14.1665 13.3406 14.1665 12.3248C14.1665 12.2462 14.1615 12.169 14.1516 12.0925L10.8791 11.3417C10.814 11.4663 10.7424 11.6016 10.6773 11.7277C10.3543 12.344 10.1205 12.7916 9.52409 12.5515C7.18234 11.7298 5.27055 9.81734 4.43825 7.44725C4.18538 6.89121 4.66705 6.63905 5.27763 6.3203C5.40159 6.25513 5.53546 6.185 5.658 6.12125L4.90717 2.84805C4.82855 2.83813 4.75205 2.83317 4.67484 2.83317ZM12.3248 15.5832C6.30967 15.5832 1.4165 10.69 1.4165 4.67484C1.4165 2.8778 2.8778 1.4165 4.67484 1.4165C4.859 1.4165 5.04105 1.43209 5.21742 1.46255C5.38955 1.49017 5.56238 1.53409 5.73096 1.59217C5.96117 1.67221 6.13471 1.86559 6.18925 2.10359L7.15896 6.32809C7.2128 6.56042 7.1455 6.80409 6.97975 6.97692C6.88342 7.0775 6.8813 7.07963 6.00296 7.53934C6.71413 9.07925 7.95017 10.311 9.45892 10.9981C9.91934 10.1191 9.92217 10.1163 10.0228 10.0199C10.1956 9.85417 10.4407 9.78971 10.6716 9.84071L14.8968 10.8104C15.1341 10.865 15.3275 11.0378 15.4068 11.268C15.4649 11.4352 15.5088 11.608 15.5378 11.7858C15.5676 11.9608 15.5832 12.1421 15.5832 12.3248C15.5832 14.1219 14.1212 15.5832 12.3248 15.5832Z" fill="black"/>
<mask id="mask0_18247_802" style="mask-type:alpha" maskUnits="userSpaceOnUse" x="1" y="1" width="15" height="15">
<path fill-rule="evenodd" clip-rule="evenodd" d="M4.67484 2.83317C3.65909 2.83317 2.83317 3.65909 2.83317 4.67484C2.83317 9.908 7.09096 14.1665 12.3248 14.1665C13.3399 14.1665 14.1665 13.3406 14.1665 12.3248C14.1665 12.2462 14.1615 12.169 14.1516 12.0925L10.8791 11.3417C10.814 11.4663 10.7424 11.6016 10.6773 11.7277C10.3543 12.344 10.1205 12.7916 9.52409 12.5515C7.18234 11.7298 5.27055 9.81734 4.43825 7.44725C4.18538 6.89121 4.66705 6.63905 5.27763 6.3203C5.40159 6.25513 5.53546 6.185 5.658 6.12125L4.90717 2.84805C4.82855 2.83813 4.75205 2.83317 4.67484 2.83317ZM12.3248 15.5832C6.30967 15.5832 1.4165 10.69 1.4165 4.67484C1.4165 2.8778 2.8778 1.4165 4.67484 1.4165C4.859 1.4165 5.04105 1.43209 5.21742 1.46255C5.38955 1.49017 5.56238 1.53409 5.73096 1.59217C5.96117 1.67221 6.13471 1.86559 6.18925 2.10359L7.15896 6.32809C7.2128 6.56042 7.1455 6.80409 6.97975 6.97692C6.88342 7.0775 6.8813 7.07963 6.00296 7.53934C6.71413 9.07925 7.95017 10.311 9.45892 10.9981C9.91934 10.1191 9.92217 10.1163 10.0228 10.0199C10.1956 9.85417 10.4407 9.78971 10.6716 9.84071L14.8968 10.8104C15.1341 10.865 15.3275 11.0378 15.4068 11.268C15.4649 11.4352 15.5088 11.608 15.5378 11.7858C15.5676 11.9608 15.5832 12.1421 15.5832 12.3248C15.5832 14.1219 14.1212 15.5832 12.3248 15.5832Z" fill="white"/>
</mask>
<g mask="url(#mask0_18247_802)">
<rect width="17" height="17" fill="#00AC4E"/>
</g>
</svg>
